<svg width="44" height="44" viewBox="0 0 44 44" fill="none" xmlns="http://www.w3.org/2000/svg">
<circle opacity="0.7" cx="22" cy="22" r="22" fill="url(#paint0_linear_2_39901)"/>
<path d="M28.5381 16.6624C28.5381 15.9977 27.9994 15.461 27.3372 15.461C26.6749 15.461 26.1357 15.9977 26.1357 16.6624C26.1357 17.3247 26.6749 17.8614 27.3372 17.8614C27.9994 17.8614 28.5381 17.3247 28.5381 16.6624Z" fill="white"/>
<path d="M30.1388 26.0404C30.0943 27.0155 29.9312 27.5453 29.7958 27.8971C29.614 28.3637 29.397 28.6973 29.0451 29.0472C28.6972 29.3971 28.3636 29.6135 27.8971 29.7934C27.5452 29.9308 27.0134 30.0944 26.0384 30.1409C24.9843 30.1873 24.6719 30.1972 21.9988 30.1972C19.3281 30.1972 19.0133 30.1873 17.9591 30.1409C16.9841 30.0944 16.4548 29.9308 16.1029 29.7934C15.6339 29.6135 15.3028 29.3971 14.9529 29.0472C14.6005 28.6973 14.3836 28.3637 14.2042 27.8971C14.0687 27.5453 13.9032 27.0155 13.8612 26.0404C13.8098 24.9863 13.8004 24.669 13.8004 22.0013C13.8004 19.3281 13.8098 19.0133 13.8612 17.9592C13.9032 16.9841 14.0687 16.4548 14.2042 16.1C14.3836 15.634 14.6005 15.3023 14.9529 14.9524C15.3028 14.6031 15.6339 14.3861 16.1029 14.2042C16.4548 14.0663 16.9841 13.9052 17.9591 13.8588C19.0133 13.8123 19.3281 13.8004 21.9988 13.8004C24.6719 13.8004 24.9843 13.8123 26.0384 13.8588C27.0134 13.9052 27.5452 14.0663 27.8971 14.2042C28.3636 14.3861 28.6972 14.6031 29.0451 14.9524C29.397 15.3023 29.614 15.634 29.7958 16.1C29.9312 16.4548 30.0943 16.9841 30.1388 17.9592C30.1877 19.0133 30.1996 19.3281 30.1996 22.0013C30.1996 24.669 30.1877 24.9863 30.1388 26.0404ZM31.9392 17.8771C31.8903 16.8116 31.7222 16.0837 31.4727 15.4496C31.2187 14.7918 30.8781 14.2344 30.3207 13.6769C29.7657 13.1219 29.2082 12.7814 28.5504 12.5244C27.9139 12.2773 27.1884 12.1073 26.1224 12.0608C25.0564 12.0094 24.7159 12.0001 21.9988 12.0001C19.2841 12.0001 18.9411 12.0094 17.8751 12.0608C16.8116 12.1073 16.0866 12.2773 15.4471 12.5244C14.7918 12.7814 14.2343 13.1219 13.6793 13.6769C13.1219 14.2344 12.7813 14.7918 12.5248 15.4496C12.2777 16.0837 12.1097 16.8116 12.0583 17.8771C12.0119 18.9431 12 19.2842 12 22.0013C12 24.716 12.0119 25.0565 12.0583 26.1225C12.1097 27.186 12.2777 27.9135 12.5248 28.5505C12.7813 29.2058 13.1219 29.7658 13.6793 30.3207C14.2343 30.8757 14.7918 31.2187 15.4471 31.4752C16.0866 31.7223 16.8116 31.8903 17.8751 31.9393C18.9411 31.9882 19.2841 32.0001 21.9988 32.0001C24.7159 32.0001 25.0564 31.9882 26.1224 31.9393C27.1884 31.8903 27.9139 31.7223 28.5504 31.4752C29.2082 31.2187 29.7657 30.8757 30.3207 30.3207C30.8781 29.7658 31.2187 29.2058 31.4727 28.5505C31.7222 27.9135 31.8903 27.186 31.9392 26.1225C31.9881 25.0565 32 24.716 32 22.0013C32 19.2842 31.9881 18.9431 31.9392 17.8771Z" fill="white"/>
<path d="M21.9985 25.3317C20.1586 25.3317 18.6656 23.8412 18.6656 22.0012C18.6656 20.1584 20.1586 18.6659 21.9985 18.6659C23.839 18.6659 25.3339 20.1584 25.3339 22.0012C25.3339 23.8412 23.839 25.3317 21.9985 25.3317ZM21.9985 16.863C19.1623 16.863 16.8652 19.165 16.8652 22.0012C16.8652 24.835 19.1623 27.1346 21.9985 27.1346C24.8348 27.1346 27.1343 24.835 27.1343 22.0012C27.1343 19.165 24.8348 16.863 21.9985 16.863Z" fill="white"/>
<defs>
<linearGradient id="paint0_linear_2_39901" x1="0.396874" y1="0.400136" x2="40.368" y2="40.3713" gradientUnits="userSpaceOnUse">
<stop stop-color="#FFD521"/>
<stop offset="0.05" stop-color="#FFD521"/>
<stop offset="0.501119" stop-color="#F50000"/>
<stop offset="0.95" stop-color="#B900B4"/>
<stop offset="0.950079" stop-color="#B900B4"/>
<stop offset="1" stop-color="#B900B4"/>
</linearGradient>
</defs>
</svg>
